<svg xmlns="http://www.w3.org/2000/svg" version="1.1" xmlns:xlink="http://www.w3.org/1999/xlink" xmlns:svgjs="http://svgjs.dev/svgjs" width="2000" height="1247" viewBox="0 0 2000 1247"><g transform="matrix(1,0,0,1,-1.2121212121212466,0.504858299595071)"><svg viewBox="0 0 396 247" data-background-color="#ffffff" preserveAspectRatio="xMidYMid meet" height="1247" width="2000" xmlns="http://www.w3.org/2000/svg" xmlns:xlink="http://www.w3.org/1999/xlink"><g id="tight-bounds" transform="matrix(1,0,0,1,0.2400000000000091,-0.09999999999999432)"><svg viewBox="0 0 395.52 247.2" height="247.2" width="395.52"><g><svg></svg></g><g><svg viewBox="0 0 395.52 247.2" height="247.2" width="395.52"><g transform="matrix(1,0,0,1,80.69314285714289,47.215199999999996)"><svg viewBox="0 0 234.1337142857142 152.7696" height="152.7696" width="234.1337142857142"><g><svg viewBox="0 0 234.1337142857142 152.7696" height="152.7696" width="234.1337142857142"><g><svg viewBox="0 0 234.13371428571426 152.76960000000003" height="152.7696" width="234.1337142857142"><g><svg viewBox="0 0 234.13371428571426 152.76960000000003" height="152.76960000000003" width="234.13371428571426"><g id="textblocktransform"><svg viewBox="0 0 234.13371428571426 152.76960000000003" height="152.76960000000003" width="234.13371428571426" id="textblock"><g><svg viewBox="0 0 234.13371428571426 152.76960000000003" height="152.76960000000003" width="234.13371428571426"><g transform="matrix(1,0,0,1,0,0)"><svg width="234.13371428571426" viewBox="3.7 -35.55 55.25 36.05" height="152.76960000000003" data-palette-color="#77d4fc"><path d="M30.45-1.7Q30.6-1.25 30.6-1.1L30.6-1.1Q30.6-0.3 29.98 0.1 29.35 0.5 28.45 0.5L28.45 0.5Q27.8 0.5 27.3 0.2 26.8-0.1 26.65-0.6L26.65-0.6 24.35-8.35 10.1-8.45 7.65-0.8Q7.25 0.45 5.8 0.45L5.8 0.45Q4.95 0.45 4.33 0 3.7-0.45 3.7-1.15L3.7-1.15Q3.7-1.25 3.8-1.75L3.8-1.75Q8.85-16.55 12.35-27.5L12.35-27.5Q13.15-29.9 13.15-29.9L13.15-29.9Q14.15-32.95 15.15-34.25 16.15-35.55 17.6-35.55L17.6-35.55Q19-35.55 19.9-34.4 20.8-33.25 21.7-30.4L21.7-30.4Q23.6-24.5 26.45-15.1L26.45-15.1 27.3-12.25 28.7-12.25Q29.5-12.25 30.03-11.7 30.55-11.15 30.55-10.3L30.55-10.3Q30.55-8.35 29-8.35L29-8.35 28.45-8.35Q29.6-4.4 30.45-1.7L30.45-1.7ZM11.4-12.45L23.25-12.3 21.75-17.45Q20-23.5 19.05-26.7L19.05-26.7Q18.45-28.7 18.1-29.6 17.75-30.5 17.45-30.5L17.45-30.5Q17.2-30.5 16.9-29.73 16.6-28.95 15.9-26.75L15.9-26.75 13.45-19.05 11.4-12.45ZM50.5-25.45Q58.95-25.45 58.95-13.5L58.95-13.5 58.95-1.8Q58.95-0.05 57.1-0.05L57.1-0.05Q55.1-0.05 55.1-1.75L55.1-1.75 55.1-13.55Q55.1-17.95 54.1-20.03 53.1-22.1 50.5-22.1L50.5-22.1Q47.75-22.1 46-20 44.25-17.9 43.55-14.5L43.55-14.5Q43.1-12.2 43.1-8.85L43.1-8.85 43.15-1.45Q43.15-0.75 42.65-0.38 42.15 0 41.3 0L41.3 0Q40.35 0 39.85-0.4 39.35-0.8 39.35-1.45L39.35-1.45Q39.35-5.9 39.15-12.3L39.15-12.3Q39-16 39-18.85L39-18.85Q39-20.1 38.72-20.83 38.45-21.55 37.65-22.85L37.65-22.85Q37.45-23.15 37.45-23.55L37.45-23.55Q37.45-24.15 38.12-24.68 38.8-25.2 39.45-25.2L39.45-25.2Q40.1-25.2 40.8-24.25L40.8-24.25Q41.35-23.45 41.82-22.33 42.3-21.2 42.3-20.2L42.3-20.2 42.3-19.65Q43.2-22.15 45.2-23.8 47.2-25.45 50.5-25.45L50.5-25.45Z" opacity="1" transform="matrix(1,0,0,1,0,0)" fill="#77d4fc" class="wordmark-text-0" data-fill-palette-color="primary" id="text-0"></path></svg></g></svg></g></svg></g></svg></g></svg></g></svg></g></svg></g><g><path d="M0 123.6c0-68.262 55.338-123.6 123.6-123.6 30.402 0 58.24 10.976 79.768 29.183l-11.147 0c-19.26-14.022-42.974-22.294-68.621-22.295-64.458 0-116.712 52.254-116.712 116.712 0 64.458 52.254 116.712 116.712 116.712 25.647 0 49.361-8.272 68.621-22.295l11.147 0c-21.528 18.206-49.366 29.183-79.768 29.183-68.262 0-123.6-55.338-123.6-123.6z" fill="#77d4fc" stroke="transparent" data-fill-palette-color="tertiary"></path></g></svg></g><defs></defs></svg><rect width="395.52" height="247.2" fill="none" stroke="none" visibility="hidden"></rect></g></svg></g></svg>